<svg xmlns="http://www.w3.org/2000/svg" xmlns:xlink="http://www.w3.org/1999/xlink" version="1.1" id="Layer_1" x="0px" y="0px" width="77.2727272727px" height="100px" viewBox="0 0 612 792" enable-background="new 0 0 612 792" xml:space="preserve">
<g>
	<rect x="164.333" y="275" fill="none" width="275" height="305"/>
	<path fill="#FFFFFF" d="M332.334,368l18.799,35.799l-20,1.601l-12.6,14.8L301.934,394l-16.6,26.2l-13.399-15l-19.4-1.4l18.8-35.799   c0.2-0.2,0.2-0.2,0.2-0.2c0.2,1.4,0.8,2.4,1.6,3.6c1.4,2,3.601,3.2,6.2,4.6c2.2,0.8,4.2,1.2,6,1.2c2,0,4-0.4,5.2-1.2   c1,0.8,2,1.8,3.199,2.4c2,1.2,4.601,2,7.601,2c2.8,0,5.199-0.8,7.4-2c1.199-0.6,2-1.6,2.799-2.4c1.801,0.8,3.602,1.2,5.602,1.2   c1.799,0,3.6-0.4,5.799-1.2c3-1.4,4.801-2.6,6.199-4.6c0.801-1.2,1.602-2.2,2-3.6c0.201,0.2,0.4,0.2,0.801,0.2   C332.133,368,332.133,368,332.334,368z M349.133,325.8c0,2-0.398,3.6-1.199,4.8c-1,2.2-12.6,1.6-14.801,1.6h-0.398h0.398   c2,1,12.801,4.6,13,6.8c0.4,1.6,0,3.2-0.799,5.2c-1.6,4.4-4.6,5.4-6.4,5.4c-1.199,0-10-5.2-10.4-5.6l-0.6-0.2l0.199,0.2   c1.201,1.2,10.4,9.2,9.602,11.2c-0.4,1.6-1.201,3-2.602,4.4c-2,2-3.799,3-6,3c-1.199,0-8.6-8.6-9.799-9.8l-0.199-0.2v0.6   c0.799,1.6,5.799,12.2,4.6,13.8c-1,1.2-2.201,2.4-4.201,3c-1.398,0.6-2.799,1-4,1c-2.6,0-6.799-11.2-8-13.2v-0.4v0.4   c0,2,0.602,13.6-1.399,14.6c-1.2,1-3,1.4-4.8,1.4c-2.2,0-3.8-0.4-5-1.4c-2-1-1.4-12.6-1.4-14.6v-0.4l-0.2,0.4   c-0.8,2-5.199,13.2-7.999,13.2c-1,0-2.4-0.4-4-1c-1.801-0.6-3-1.8-4-3c-1.4-1.6,3.6-12.2,4.399-13.8l0.4-0.6l-0.8,0.2   c-1.2,1.2-8.4,9.8-9.601,9.8c-1.8,0-3.8-1-5.8-3c-1.399-1.4-2.399-2.8-2.6-4.4c-0.601-2,8-10,9.2-11.2l0.6-0.2l-0.8,0.2   c-0.4,0.4-9.2,5.6-10,5.6c-2.2,0-4.8-1-6.8-5.4c-0.8-2-1-3.6-0.8-5.2c0.199-2.2,11.199-5.8,13.199-6.8h0.4h-0.4   c-2,0-13.6,0.6-14.8-1.6c-1-1.2-1.2-2.8-1.2-4.8c0-2,0.2-3.8,1.2-5c1.2-1.8,12.8-1.2,14.8-1.2h0.4l-0.4-0.2c-2-0.8-13-4.6-13.199-7   c-0.2-1.4,0-3.2,0.8-5c2-4.4,4.6-5.2,6.8-5.2c0.8,0,9.6,5.2,10,5.6l0.8,0.2l-0.6-0.6c-1.2-1.2-9.801-9-9.2-11.2   c0.2-1.4,1.2-2.8,2.6-4.4c2-1.8,4-2.6,5.8-2.6c1.2,0,8.4,8,9.601,9.4l0.8,0.6l-0.4-0.8c-0.8-1.6-5.8-12-4.399-14   c1-1.2,2.199-2,4-2.8c1.6-0.6,3-0.8,4-0.8c2.8,0,7.199,11,7.999,13.2l0.2,0.4v-0.4c0-2.2-0.6-13.8,1.4-15c1.2-0.8,2.8-1.2,5-1.2   c1.8,0,3.6,0.4,4.8,1.2c2,1.2,1.399,12.8,1.399,15v0.4v-0.4c1.201-2.2,5.4-13.2,8-13.2c1.201,0,2.602,0.2,4,0.8   c2,0.8,3.201,1.6,4.201,2.8c1.199,2-3.801,12.399-4.6,14v0.8l0.199-0.6c1.199-1.4,8.6-9.4,9.799-9.4c2.201,0,4,0.8,6,2.6   c1.4,1.6,2.201,3,2.602,4.4c0.799,2.2-8.4,10-9.602,11.2l-0.199,0.6l0.6-0.2c0.4-0.4,9.201-5.6,10.4-5.6c1.801,0,4.801,0.8,6.4,5.2   c0.799,1.8,1.199,3.6,0.799,5c-0.199,2.4-11,6.2-13,7l-0.398,0.2h0.398c2.201,0,13.801-0.6,14.801,1.2   C348.734,322,349.133,323.801,349.133,325.8z M332.133,325.8c0-17.2-13.799-31.199-30.798-31.199c-17.2,0-31.399,14-31.399,31.199   c0,17,14.199,31,31.399,31C318.334,356.8,332.133,342.8,332.133,325.8z M324.934,325.8c0-13.399-10.4-24-23.599-24   c-13.4,0-24.2,10.6-24.2,24c0,13.2,10.8,23.8,24.2,23.8C314.533,349.6,324.934,339,324.934,325.8z"/>
</g>
</svg>