<svg xmlns="http://www.w3.org/2000/svg" xmlns:xlink="http://www.w3.org/1999/xlink" version="1.1" id="Layer_1" x="0px" y="0px" width="77.2727272727px" height="100px" viewBox="0 0 612 792" enable-background="new 0 0 612 792" xml:space="preserve">
<g>
	<rect x="163" y="264" fill="none" width="275" height="305"/>
	<path fill="#FFFFFF" d="M351.299,295.801v107.398H270.9c-11.8,0-21.199-8.2-21.199-20.4v-92.999c0-6.6,5.399-12,12-12H336.1V370   H270.9c-8.2,0-14,4.4-14,12.4v0.4c0,8,5.8,13.2,14,13.2h74.799V295.801H351.299z M336.1,380H271.7c-1.8,0-3.399,1-3.399,2.6   c0,2,1.6,3,3.399,3H336.1V380z"/>
</g>
</svg>