<svg xmlns="http://www.w3.org/2000/svg" xmlns:xlink="http://www.w3.org/1999/xlink" version="1.1" id="Layer_1" x="0px" y="0px" width="77.2727272727px" height="100px" viewBox="0 0 612 792" enable-background="new 0 0 612 792" xml:space="preserve">
<g>
	<rect x="163" y="264" fill="none" width="275" height="305"/>
	<path fill="#FFFFFF" d="M373.399,297.801v101.398H227.602V297.801h22.8v-9.6h14.399v9.6H373.399z M365.999,305.201H235.001V335.6   h40c5.999-7.6,15.199-12.4,25.6-12.4C310.8,323.2,320,328,326,335.6h39.999V305.201z M300.601,328.6c-15,0-27.2,12.2-27.2,27.2   c0,15,12.2,27.2,27.2,27.2c14.8,0,26.999-12.2,26.999-27.2C327.6,340.8,315.4,328.6,300.601,328.6z M300.601,340.2   c-8.601,0-15.8,7-15.8,15.6c0,8.6,7.199,15.6,15.8,15.6c8.6,0,15.6-7,15.6-15.6C316.2,347.2,309.2,340.2,300.601,340.2z"/>
</g>
</svg>