<svg xmlns="http://www.w3.org/2000/svg" xmlns:xlink="http://www.w3.org/1999/xlink" version="1.1" id="Layer_1" x="0px" y="0px" width="77.2727272727px" height="100px" viewBox="0 0 612 792" enable-background="new 0 0 612 792" xml:space="preserve">
<g>
	<path d="M344.346,276.296c6,0,8.8,3.6,8.8,8v37.399c0,4.2-3.2,7.6-7.399,8l-80.799,9c-6.6,0.8-7.4,9.4,0.4,9.4h76.599   c8.8,0,8.8,13,0,13h-78.199c-17.6,0-24.2-19.399-10.4-29.6l7-5.2l-24.8-54.199h-12.2c-9.4,0-9.4-14.4,0-14.4h14.2   c7.2,0,9.2,3.4,11.4,8.6l5,10H344.346z M258.147,383.095c0,6.8-5.4,12.399-12.6,12.399c-6.8,0-12.4-5.6-12.4-12.399   c0-7,5.6-12.6,12.4-12.6C252.747,370.495,258.147,376.095,258.147,383.095z M265.347,301.096h20.2l-4.4-13.6h-22L265.347,301.096z    M292.546,324.496l-5.2-16.2h-19l8.2,17.799L292.546,324.496z M288.346,287.496l4.2,13.6h19.799l-3.199-13.6H288.346z    M317.546,321.896l-4-13.6h-19l5,15.399L317.546,321.896z M342.146,287.496h-25.8l3,13.6h22.8V287.496z M342.746,383.095   c0,6.8-5.4,12.399-12.4,12.399s-12.6-5.6-12.6-12.399c0-7,5.6-12.6,12.6-12.6S342.746,376.095,342.746,383.095z M342.146,308.296   h-21.2l3.2,12.6l18-1.8V308.296z"/>
</g>
</svg>