<svg xmlns="http://www.w3.org/2000/svg" xmlns:xlink="http://www.w3.org/1999/xlink" version="1.1" id="Layer_1" x="0px" y="0px" width="77.2727272727px" height="100px" viewBox="0 0 612 792" enable-background="new 0 0 612 792" xml:space="preserve">
<g>
	<rect x="163" y="264" fill="none" width="275" height="305"/>
	<path fill="#FFFFFF" d="M271.699,394.799l-33.599,8.2l-0.601-0.6l8.8-33.6l78.799-78.399c1.4-0.4,4.8-1.4,9.6-0.4L251.1,373.6   l-2.399,8.8l9.6,9.6l9-2.4l4-3.8l0.399-9l-6.399-6.4l76.599-76.599c1.2,1,1.2,1,2.4,2.4c11.399,11.2,6.199,19.8,6.199,19.8   L271.699,394.799z M364.099,302.401l-7.4,7.4c0,0,5.6-8.6-6-19.8c-10.199-10.2-19.8-5.8-19.8-5.8l7.8-7.8c7-7.2,19.2-7.2,26-0.4   C372.698,283.401,371.698,294.801,364.099,302.401z"/>
</g>
</svg>