<svg xmlns="http://www.w3.org/2000/svg" xmlns:xlink="http://www.w3.org/1999/xlink" version="1.1" id="Layer_1" x="0px" y="0px" width="77.2727272727px" height="100px" viewBox="0 0 612 792" enable-background="new 0 0 612 792" xml:space="preserve">
<g>
	<rect x="163" y="264" fill="none" width="275" height="305"/>
	<path fill="#FFFFFF" d="M343.499,359.6c0,23.8-19.399,43-42.999,43c-23.8,0-42.999-19.2-42.999-43c0-12,4.8-22.799,12.8-30.599   v-26.6c0-16.6,13.6-30.2,30.199-30.2s30,13.6,30,30.2V329C338.5,336.8,343.499,347.6,343.499,359.6z M283.301,354.8H269.7l-2,4.8   l2,4.8h13.601V354.8z M291.7,344.2l-9.8-9.8l-4.8,1.8l-2,5l9.8,9.8L291.7,344.2z M284.9,368l-9.8,10l2,4.8l4.8,1.8l9.8-9.8   L284.9,368z M286.5,319c8.8-3.2,18.4-3.2,27.8,0v-16.6c0-7.6-6.2-14-13.8-14c-7.8,0-14,6.4-14,14V319z M305.1,342.6V329l-4.8-2   l-4.8,2v13.6H305.1z M295.5,376.399V390l4.8,2l4.8-2v-13.6H295.5z M315.5,351l9.8-9.8l-1.8-4.8l-5-2l-9.8,9.8L315.5,351z    M308.7,374.8l9.8,9.8l5-1.8l1.8-4.8l-9.8-10L308.7,374.8z M317.1,364.4h13.6l2-4.8l-2-4.8h-13.6V364.4z"/>
</g>
</svg>