<svg xmlns="http://www.w3.org/2000/svg" xmlns:xlink="http://www.w3.org/1999/xlink" version="1.1" id="Layer_1" x="0px" y="0px" width="77.2727272727px" height="100px" viewBox="0 0 612 792" enable-background="new 0 0 612 792" xml:space="preserve">
<g>
	<rect x="163" y="264" fill="none" width="275" height="305"/>
	<path fill="#FFFFFF" d="M335.399,276.801V386.6c0,7-5.8,12.8-12.8,12.8H278.4c-7,0-12.8-5.8-12.8-12.8V276.801   c0-2.2,2-4.2,4.199-4.2h61.199C333.6,272.601,335.399,274.601,335.399,276.801z M275.4,293.001V332H325.6v-38.999H275.4z    M290.2,340.8h-14.8v8.4h14.8V340.8z M290.2,353h-14.8v8.4h14.8V353z M290.2,365.2h-14.8v8.4h14.8V365.2z M290.2,377.399h-14.8   c0,5,3.6,8.8,8.6,8.8h6.2V377.399z M292.8,283.801c0,1.6,1,2.8,2.6,2.8h10.2c1.4,0,2.4-1.2,2.4-2.8c0-1.4-1-2.6-2.4-2.6h-10.2   C293.8,281.201,292.8,282.401,292.8,283.801z M307.6,340.8h-14.2v8.4h14.2V340.8z M307.6,353h-14.2v8.4h14.2V353z M307.6,365.2   h-14.2v8.4h14.2V365.2z M307.6,377.399h-14.2v8.8h14.2V377.399z M325.6,340.8H311v8.4h14.6V340.8z M325.6,353H311v8.4h14.6V353z    M325.6,365.2H311v8.4h14.6V365.2z M316.8,386.199c5.399,0,8.8-3.8,8.8-8.8H311v8.8H316.8z"/>
</g>
</svg>