<svg xmlns="http://www.w3.org/2000/svg" xmlns:xlink="http://www.w3.org/1999/xlink" version="1.1" id="Layer_1" x="0px" y="0px" width="77.2727272727px" height="100px" viewBox="0 0 612 792" enable-background="new 0 0 612 792" xml:space="preserve">
<g>
	<rect x="163" y="264" fill="none" width="275" height="305"/>
	<path fill="#FFFFFF" d="M365.398,338.2c0,36.199-28.6,64.999-64.799,64.999c-36,0-64.999-28.8-64.999-64.999   c0-35.799,28.999-64.599,64.999-64.599C336.799,273.601,365.398,302.401,365.398,338.2z M269.2,354.8c-0.8-5-1.2-10.6-1.2-16   c0-4,0.2-7.2,0.6-11c-9.199-1.8-14.6-3.2-18.8-5c-1.399,4.8-2.199,10.2-2.199,15.4c0,2.6,0,5.2,0.399,7.4   C250.601,348.6,257.2,352.6,269.2,354.8z M280.2,387c-4.601-6.4-7.601-14.6-9.601-24.2c-8-1.8-15.199-4-19.999-6.6   c3,7.4,6.8,14,12.6,19.4C268,380.799,274,384.399,280.2,387z M252.8,315.8c1.801,1.6,4.8,1.8,16.6,5c2.2-12.8,6-23.399,12-31.399   c-6.8,3.2-12.8,6-18.199,11.8C258.6,305.401,255.2,310.601,252.8,315.8z M276.399,356.2c6.8,1.2,13.4,1.8,20.2,2V330   c-7.2-0.2-14.4-0.6-21.2-1.4c0,3.6-0.199,6.6-0.199,10.2C275.2,344.6,275.6,350.8,276.399,356.2z M276.399,321.8   c6.601,0.6,13.4,1,20.2,1.2v-37.2c0,0-0.2,0-0.4,0C287.199,289.401,279.6,303.401,276.399,321.8z M296.6,391v-25.8   c-6.2-0.2-12.4-0.6-18.399-1.2c1.199,5.2,2.999,9.8,5.399,14C286.6,385.199,291.199,391,296.6,391z M304.199,285.801V323   c7-0.2,13.6-0.6,20.399-1.2c-2.6-14.4-8.399-27-15.199-33.199C307.6,287.401,305.6,285.801,304.199,285.801z M324.399,356.4   c1-5.4,1.199-11.6,1.199-17.6c0-3.6,0-6.6-0.199-10c-6.8,0.6-13.8,1-21.2,1.2V358.2C311.199,358,317.799,357.4,324.399,356.4z    M322.799,364c-6.199,0.6-12.399,1-18.6,1.2V391C314.6,391,320.199,373,322.799,364z M319.6,289.201c5.999,7.8,9.8,18.8,11.8,31.8   c10.8-2,15.199-3.8,16.799-5C342.599,303.601,331.999,293.601,319.6,289.201z M349.799,357c-5.2,2.4-12,4.4-19.399,6   c-2.2,9.6-5,17.399-9.801,24c6.2-2.6,12.4-6.2,17.2-11.4C343.398,370.399,347.198,364,349.799,357z M332.799,338.8   c0,5.4-0.4,11.2-1,16.2c20.8-3.4,21.6-8.2,21.6-16.8c0-5-0.8-10.4-2.399-15.2c-3.801,1.6-10.601,4-18.601,4.8   C332.799,331.6,332.799,334.8,332.799,338.8z"/>
</g>
</svg>