<svg xmlns="http://www.w3.org/2000/svg" xmlns:xlink="http://www.w3.org/1999/xlink" version="1.1" id="Layer_1" x="0px" y="0px" width="77.2727272727px" height="100px" viewBox="0 0 612 792" enable-background="new 0 0 612 792" xml:space="preserve">
<g>
	<path d="M369.344,273.496v100.999c0,9.4-8.199,17.8-16.799,17.8H237.746c-14.2,0-21.8-7.4-21.8-25.399v-73.799h21.2v-19.6H369.344z    M237.146,303.896h-10.4v62.999c0,9.2,2.2,13.6,5,13.6c3.4,0,5.4-4.4,5.4-13.6V303.896z M358.545,284.296H247.946v82.599   c0,6.4-1.2,11-3,14.6h107.599c3.6,0,6-4.2,6-7V284.296z M290.545,322.295h-25.4v-3.6h25.4V322.295z M290.545,334.095h-25.4v-3.6   h25.4V334.095z M290.545,345.495h-25.4v-3.6h25.4V345.495z M290.545,356.495h-25.4v-3.6h25.4V356.495z M290.545,367.895h-25.4v-3.6   h25.4V367.895z M268.946,300.096h66.599v7h-66.599V300.096z M300.545,318.695h42.599v40.6h-42.599V318.695z"/>
</g>
</svg>