<svg xmlns="http://www.w3.org/2000/svg" xmlns:xlink="http://www.w3.org/1999/xlink" version="1.1" id="Layer_1" x="0px" y="0px" width="77.2727272727px" height="100px" viewBox="0 0 612 792" enable-background="new 0 0 612 792" xml:space="preserve">
<path fill="#FFFFFF" d="M385.199,380.6c5,5,4.8,13-0.2,18.199c-5.2,5-13.199,5-18.199-0.199L303.801,334c-5.4-5.2-8.601-6.8-13-5.4  c-4.4,1.6-10.6,1.6-16.399-2.2c-12.4-8-11.601-23-11.601-23l1-1.6c0,0,11.2,7.2,12.6,8c1.801,1.4,8,4.2,13.601-4.4  c5.8-8.6,1-14-0.601-15c-1.399-0.8-12.6-8.2-12.6-8.2l1-1.6c0,0,13-6.6,25.199,0.6c0,0.4,3,2.2,4.2,3.2c7.8,7,7.8,14.8,6.4,21.2  c-1.2,5.8,0,7.8,4.6,12.8L385.199,380.6z M380.6,384.799c-2.601-2.6-6.8-2.6-9.601,0c-2.399,2.6-2.399,7,0,9.4  c2.801,2.6,7,3,9.601,0.2C383.199,392,383.199,387.399,380.6,384.799z"/>
<g>
	<rect x="-312.667" y="275" fill="none" width="275" height="305"/>
	<path fill="#FFFFFF" d="M-131.368,391.6c5,5,4.8,13-0.2,18.199c-5.2,5-13.199,5-18.199-0.199l-32.2-34l-29.999,36.199   c-2.8,3-7.8,3-10.8,0l-7.8-8c-3-2.799-3-7.799,0-10.799l34.399-32l-16.6-16c-5.4-5.2-8.601-6.8-13-5.4   c-4.4,1.6-10.6,1.6-16.399-2.2c-12.4-8-11.601-23-11.601-23l1-1.6c0,0,11.2,7.2,12.6,8c1.801,1.4,8,4.2,13.601-4.4   c5.8-8.6,1-14-0.601-15c-1.399-0.8-12.6-8.2-12.6-8.2l1-1.6c0,0,13-6.6,25.199,0.6c0,0.4,3,2.2,4.2,3.2c7.8,7,7.8,14.8,6.4,21.2   c-1.2,5.8,0,7.8,4.6,12.8l16.6,16.6l19.8-20.2l14.399,14.8l-18.999,19.4L-131.368,391.6z M-101.568,341l-10.8,11   c-2.2,2.2-5.601,2.2-8,0l-2.4-2.6c-1.8-1.6-2.6-4.6-1.6-6c1.8-1.2,1.2-4.8-2.2-8c-4.8-5-11-5.2-13.399-2.6c-1,0.8-4.2,4.2-4.2,4.2   l-14.8-14.6l2.4-2.4c0,0,0.6-0.6,1.8-2c4.6-4.6-0.2-9.8-0.2-9.8c-13-12.8-31.199-12.6-31.199-12.6l-0.2-4.6   c36.6-9.4,50.399,6.6,55.399,11.6c4.6,4.6,9.399,9.399,10.6,10.6c2.6,2.6,0,10,3.8,14.2c1.8,1.8,4.2,2.6,6,2.6   c2-1.8,5.2-1.2,6.8,0.6l2.2,2.4C-99.368,335.2-99.368,338.6-101.568,341z M-135.967,395.799c-2.601-2.6-6.8-2.6-9.601,0   c-2.399,2.6-2.399,7,0,9.4c2.801,2.6,7,3,9.601,0.2C-133.368,403-133.368,398.399-135.967,395.799z"/>
</g>
</svg>