<svg xmlns="http://www.w3.org/2000/svg" xmlns:xlink="http://www.w3.org/1999/xlink" version="1.1" id="Layer_1" x="0px" y="0px" width="77.2727272727px" height="100px" viewBox="0 0 612 792" enable-background="new 0 0 612 792" xml:space="preserve">
<g>
	<path d="M367.945,308.896v58.599c0,6.8-5.6,12.4-12,12.4h-12.199l5.399,24.4H238.547l4.4-24.4h-13.2c-7.2,0-12.4-5.6-12.4-12.4   v-58.599c0-6.8,5.2-12.399,12.4-12.399h15.4v-18.8h5.4v-20.6h84.398v20.6h5.4v18.8h15.6   C362.346,296.496,367.945,302.096,367.945,308.896z M246.947,318.295c0-4.6-4-8.6-8.8-8.6c-4.6,0-8.6,4-8.6,8.6   c0,4.8,4,8.6,8.6,8.6C242.947,326.896,246.947,323.096,246.947,318.295z M338.945,396.895l-7.6-38.6h-77.399l-5.8,38.6H338.945z    M256.147,311.296h73.199v-46.6h-73.199V311.296z M288.546,373.295h-22.2v5.6h22.2V373.295z M320.146,373.295h-22.2v5.6h22.2   V373.295z"/>
</g>
</svg>