<svg xmlns="http://www.w3.org/2000/svg" xmlns:xlink="http://www.w3.org/1999/xlink" version="1.1" id="Layer_1" x="0px" y="0px" width="77.2727272727px" height="100px" viewBox="0 0 612 792" enable-background="new 0 0 612 792" xml:space="preserve">
<g>
	<rect x="163" y="264" fill="none" width="275" height="305"/>
	<path fill="#FFFFFF" d="M316.899,371c-10.399,0-20.6-3.6-28.999-10.6l-8.2,20l-20.8,20.8c-2.199,1.6-4.6,2.4-7.199,2.4   c-6.601,0-12-5.801-12-12.2c0-2.6,0.8-5.2,2.399-7.2l20.601-20.799l20.199-8.2c-7-8.4-10.6-18.799-10.6-29.199   c0-24.2,20.399-44.2,44.599-44.2c24,0,44.399,20.4,44.399,44.399c0,11.6-4.199,23-12.8,31.6C339.699,366.6,328.3,371,316.899,371z    M316.899,353.8c14.8,0,27.2-12.4,27.2-27.6c0-14.8-12.6-27.199-27.2-27.199c-14.999,0-27.399,12.6-27.399,27.199   c0,7.2,2.601,14.2,8,19.6C302.9,351,309.9,353.8,316.899,353.8z"/>
</g>
</svg>